<?xml version="1.0" standalone="no"?><!DOCTYPE svg PUBLIC "-//W3C//DTD SVG 1.1//EN" "http://www.w3.org/Graphics/SVG/1.1/DTD/svg11.dtd"><svg t="1614926599881" class="icon" viewBox="0 0 1024 1024" version="1.1" xmlns="http://www.w3.org/2000/svg" p-id="3759" xmlns:xlink="http://www.w3.org/1999/xlink" width="200" height="200"><defs><style type="text/css"></style></defs><path d="M0 0h297.661321v297.661321L0 0z m1024 1024L726.338679 726.338679H1024V1024zM403.954902 403.954902l-53.14679-53.14679v-49.643759h53.14679v102.790549z m251.521786 251.521786h14.212168v14.212168l-14.212168-14.212168z m-109.797804-109.797804V531.467907h53.14679v-53.146791h70.863182v53.146791h53.146791v70.861991H602.329898l-56.651014-56.651014zM425.174326 425.174326h49.642567v49.642567L425.174326 425.174326z m53.14679 53.14679h49.642568v49.642568l-49.642568-49.642568z m67.357768-230.303553h53.14679v124.009972h53.146791v53.146791H474.816893v-53.146791h53.146791V248.017563h-53.146791V124.008781h70.861991V70.861991H421.670102V0H616.543256v70.861991h53.146791v53.14679h-53.146791v53.146791h-70.863182v70.861991zM1024 0v301.164353H722.835647V0H1024zM474.816893 248.017563v53.14679h-53.146791v-53.14679h53.146791z m-124.008781-70.861991h53.14679v53.146791h-53.14679v-53.146791z m0-70.861991V53.146791h53.14679V106.293581h-53.14679z m425.174325 425.174326h-53.14679v-53.146791h53.14679v53.146791z m-53.14679-53.146791h-53.146791V425.174326h53.146791v53.14679z m53.14679-124.009972v53.146791h-53.14679v-53.146791h53.14679z m70.861991 0h53.146791v124.009972h-53.146791V354.311144z m0 248.018754h-70.861991v-53.146791h124.008782v-53.146791h53.14679V425.174326H1024v124.008781h-70.861991v53.146791h-53.14679v70.86199h-53.146791v-70.86199z m-124.008781 53.14679v-53.14679h53.14679v53.14679h-53.14679z m301.164353 0h-53.146791v-53.14679H1024v53.14679z" p-id="3760"></path></svg>